<?xml version="1.0" encoding="utf-8"?>
<svg viewBox="5.998 9.72 84.695 90.397" xmlns="http://www.w3.org/2000/svg" xmlns:bx="https://boxy-svg.com">
  <path style="fill: rgb(53, 53, 53);" d="M 61.009 89.372 L 58.971 83.359 L 51.895 81.74 L 53.668 75.632 C 53.668 75.632 60.932 77.046 63.297 79.585 C 65.29 81.724 66.045 87.915 66.045 87.915 L 61.009 89.372 Z" transform="matrix(-1, 0, 0, -1, 122.621384, 160.219009)"/>
  <path style="fill: rgb(53, 53, 53);" d="M 34.485 70.579 C 34.485 70.579 31.873 77.555 31.31 80.709 C 30.918 82.905 31.197 87.853 31.197 87.853 L 37.546 86.962 C 37.546 86.962 37.598 82.844 37.886 80.709 C 38.245 78.054 40.154 72.999 40.154 72.999 L 34.485 70.579 Z"/>
  <path style="fill: rgb(53, 53, 53);" d="M 30.272 48.729 C 30.272 48.729 21.458 49.599 17.642 52.213 C 14.412 54.426 14.36 55.356 14.36 55.356 L 16.806 58.292 C 16.806 58.292 19.036 56.474 21.899 54.673 C 24.021 53.587 30.703 53.404 30.703 53.404 L 30.272 48.729 Z"/>
  <path style="fill: rgb(53, 53, 53);" d="M 86.625 36.008 C 86.625 36.008 79.056 35.767 75.483 38.452 C 72.46 40.724 69.997 49.122 69.997 49.122 L 74.061 51.424 C 74.061 51.424 75.188 44.617 77.867 42.768 C 80.216 41.146 85.687 40.82 85.687 40.82 L 86.625 36.008 Z" transform="matrix(-0.9881, 0.153814, -0.153814, -0.9881, 157.655685, 75.363602)"/>
  <path style="fill: rgb(247, 136, 13);" d="M 44.837 36.634 H 50.996 A 16.409 16.409 0 0 1 67.405 53.043 V 60.674 A 12.653 12.653 0 0 1 54.752 73.327 H 42.1 A 12.653 12.653 0 0 1 29.447 60.674 V 52.024 A 15.39 15.39 0 0 1 44.837 36.634 Z" bx:shape="rect 29.447 36.634 37.958 36.693 15.39 16.409 12.653 12.653 1@9b642a4e"/>
  <rect x="26.495" y="16.389" width="44.284" height="27.625" style="fill: rgb(247, 136, 13);" rx="9.912" ry="9.912"/>
  <rect x="29.236" y="19.658" width="38.169" height="21.51" style="fill: rgb(53, 53, 53);" rx="9.912" ry="9.912"/>
  <ellipse style="stroke-width: 0.5px; fill: rgb(53, 53, 53);" cx="48.089" cy="57.847" rx="10.797" ry="10.052"/>
  <ellipse style="fill: rgb(119, 119, 119);" cx="48.151" cy="58.028" rx="6.032" ry="5.882"/>
  <ellipse style="fill: rgb(27, 25, 25);" cx="48.137" cy="57.964" rx="2.575" ry="2.59"/>
  <path style="fill: rgb(53, 53, 53);" d="M 26.977 23.771 L 26.562 35.157 C 26.562 35.157 23.386 34.605 22.688 33.755 C 21.822 33.152 21.478 30.786 21.387 29.625 C 21.29 28.383 21.692 25.614 22.442 24.927 C 23.617 23.869 26.977 23.771 26.977 23.771 Z"/>
  <path style="fill: rgb(53, 53, 53);" d="M 76.51 35.896 L 76.254 24.58 C 76.254 24.58 72.735 25.121 72.017 25.953 C 71.125 26.544 70.77 28.861 70.677 29.998 C 70.577 31.214 70.991 33.925 71.764 34.598 C 72.974 35.634 76.51 35.896 76.51 35.896 Z" transform="matrix(-1, 0, 0, -1, 146.841263, 60.310001)"/>
  <path style="fill: rgb(59, 58, 58);" d="M 23.26 24.885 C 23.26 24.529 23.895 15.294 29.476 12.937 C 37.977 10.535 56.629 10.717 66.201 12.546 C 75.538 15.257 74.13 25.144 73.962 25.48 C 73.768 25.868 72.957 25.918 72.619 25.243 C 72.545 25.096 71.865 19.099 68.902 16.434 C 66.112 13.925 61.143 13.957 58.835 13.741 C 56.417 13.515 40.554 13.336 32.925 14.249 C 25.957 15.082 25.331 23.128 25.331 24.421"/>
  <path style="fill: rgb(62, 146, 204);" d="M 32.347 29.893 C 32.662 30.338 36.046 28.547 37.969 28.522 C 39.979 28.496 42.997 30.631 43.45 29.499 C 43.871 28.446 41.378 27.183 40.387 26.726 C 39.382 26.264 38.743 25.9 37.386 26.023 C 36.384 26.046 35.352 26.296 34.482 26.839 C 33.648 27.361 31.828 29.028 32.347 29.893 Z"/>
  <path style="fill: rgb(62, 146, 204);" d="M 51.423 26.293 C 51.743 25.848 55.168 27.639 57.115 27.664 C 59.15 27.69 62.205 25.555 62.664 26.687 C 63.091 27.74 60.567 29.003 59.563 29.46 C 58.546 29.922 57.898 30.286 56.524 30.163 C 55.511 30.14 54.465 29.89 53.585 29.347 C 52.741 28.825 50.898 27.158 51.423 26.293 Z" transform="matrix(-1, 0, 0, -1, 114.042664, 56.409138)"/>
  <path style="fill: rgb(247, 136, 13);" d="M 9.475 59.666 C 9.475 59.666 12.496 64.537 16.159 62.551 C 19.359 61.414 19.366 56.03 18.438 54.123 L 16.167 55.352 C 16.167 55.352 16.553 58.901 15.047 59.718 C 13.926 60.327 10.823 58.297 10.823 58.297 L 9.475 59.666 Z" transform="matrix(-0.486215, -0.873839, 0.873839, -0.486215, -30.045954, 99.484085)"/>
  <path style="fill: rgb(247, 136, 13);" d="M 75.597 32.794 C 75.597 32.794 78.892 28.488 82.886 30.244 C 86.376 31.249 86.384 36.009 85.372 37.695 L 82.895 36.609 C 82.895 36.609 83.316 33.471 81.674 32.748 C 80.451 32.21 77.067 34.005 77.067 34.005 L 75.597 32.794 Z" transform="matrix(-0.991262, 0.131909, -0.131909, -0.991262, 165.298492, 56.568054)"/>
  <path style="fill: rgb(247, 136, 13);" d="M 30.558 87.858 C 28.129 88.22 25.728 87.803 23.866 89.529 C 22.489 90.805 22.989 94.37 22.989 94.37 L 38.508 93.497 L 37.625 86.691 C 37.625 86.691 33.366 87.44 30.558 87.858 Z"/>
  <path style="fill: rgb(247, 136, 13);" d="M 69.772 81.597 C 67.757 81.977 65.446 81.425 63.901 83.233 C 62.759 84.57 63.609 87.948 63.609 87.948 L 76.28 87.255 L 75.18 81.015 C 75.18 81.015 72.1 81.159 69.772 81.597 Z" transform="matrix(0.639088, -0.769134, 0.769134, 0.639088, -39.788635, 84.17012)"/>
  <path style="fill: rgb(9, 3, 2);" d="M 6.982 97.356 C 6.982 97.356 22.153 92.415 47.248 92.572 C 78.697 92.411 87.681 98.046 87.681 98.046 C 87.681 98.046 77.462 92.799 47.344 93.796 C 24.848 93.233 6.982 97.356 6.982 97.356 Z"/>
</svg>