<?xml version="1.0" encoding="utf-8"?>
<svg viewBox="5.998 9.72 84.695 85.523" xmlns="http://www.w3.org/2000/svg" xmlns:bx="https://boxy-svg.com">
  <path style="fill: rgb(53, 53, 53);" d="M 61.009 89.372 C 61.009 89.372 58.103 82.3 57.621 79.146 C 57.286 76.95 57.525 72.002 57.525 72.002 L 62.95 72.893 C 62.95 72.893 62.995 77.011 63.241 79.146 C 63.548 81.801 66.045 87.915 66.045 87.915 L 61.009 89.372 Z" transform="matrix(-1, 0, 0, -1, 122.621384, 160.219009)"/>
  <path style="fill: rgb(53, 53, 53);" d="M 34.485 70.579 C 34.485 70.579 31.873 77.555 31.31 80.709 C 30.918 82.905 31.197 87.853 31.197 87.853 L 37.546 86.962 C 37.546 86.962 37.598 82.844 37.886 80.709 C 38.245 78.054 40.154 72.999 40.154 72.999 L 34.485 70.579 Z"/>
  <path style="fill: rgb(53, 53, 53);" d="M 30.138 52.201 C 30.138 52.201 21.324 51.29 17.508 48.552 C 14.278 46.235 12.869 44.373 12.869 44.373 L 15.654 41.475 C 15.654 41.475 18.902 44.09 21.765 45.976 C 23.887 47.113 30.569 47.305 30.569 47.305 L 30.138 52.201 Z"/>
  <path style="fill: rgb(53, 53, 53);" d="M 86.625 36.008 C 86.625 36.008 79.056 35.767 75.483 38.452 C 72.46 40.724 68.02 45.718 68.02 45.718 L 71.918 48.142 C 71.918 48.142 75.188 44.617 77.867 42.768 C 80.216 41.146 85.687 40.82 85.687 40.82 L 86.625 36.008 Z" transform="matrix(-0.9881, 0.153814, -0.153814, -0.9881, 157.655685, 75.363602)"/>
  <path style="fill: rgb(247, 136, 13);" d="M 44.837 36.634 H 50.996 A 16.409 16.409 0 0 1 67.405 53.043 V 60.674 A 12.653 12.653 0 0 1 54.752 73.327 H 42.1 A 12.653 12.653 0 0 1 29.447 60.674 V 52.024 A 15.39 15.39 0 0 1 44.837 36.634 Z" bx:shape="rect 29.447 36.634 37.958 36.693 15.39 16.409 12.653 12.653 1@9b642a4e"/>
  <rect x="26.495" y="16.389" width="44.284" height="27.625" style="fill: rgb(247, 136, 13);" rx="9.912" ry="9.912"/>
  <rect x="29.236" y="19.658" width="38.169" height="21.51" style="fill: rgb(53, 53, 53);" rx="9.912" ry="9.912"/>
  <ellipse style="stroke-width: 0.5px; fill: rgb(45, 130, 183);" cx="48.089" cy="57.847" rx="10.797" ry="10.052"/>
  <ellipse style="fill: rgb(53, 53, 53);" cx="48.151" cy="58.028" rx="6.032" ry="5.882"/>
  <ellipse style="fill: rgb(9, 3, 2);" cx="48.14" cy="58.017" rx="1.997" ry="2.009"/>
  <path style="fill: rgb(53, 53, 53);" d="M 26.729 23.771 L 26.562 35.157 C 26.562 35.157 23.386 34.605 22.688 33.755 C 21.822 33.152 21.478 30.786 21.387 29.625 C 21.29 28.383 21.692 25.614 22.442 24.927 C 23.617 23.869 26.729 23.771 26.729 23.771 Z"/>
  <path style="fill: rgb(53, 53, 53);" d="M 76.179 35.73 L 76.006 24.58 C 76.006 24.58 72.735 25.121 72.017 25.953 C 71.125 26.544 70.77 28.861 70.677 29.998 C 70.577 31.214 70.991 33.925 71.764 34.598 C 72.974 35.634 76.179 35.73 76.179 35.73 Z" transform="matrix(-1, 0, 0, -1, 146.841263, 60.310001)"/>
  <path style="fill: rgb(59, 58, 58);" d="M 23.26 24.885 C 23.26 24.529 23.895 15.294 29.476 12.937 C 37.977 10.535 56.629 10.717 66.201 12.546 C 75.538 15.257 74.13 25.144 73.962 25.48 C 73.768 25.868 72.957 25.918 72.619 25.243 C 72.545 25.096 71.865 19.099 68.902 16.434 C 66.112 13.925 61.143 13.957 58.835 13.741 C 56.417 13.515 40.554 13.336 32.925 14.249 C 25.957 15.082 25.331 23.128 25.331 24.421"/>
  <path style="fill: rgb(62, 146, 204);" d="M 32.347 29.893 C 32.662 30.338 36.046 28.547 37.969 28.522 C 39.979 28.496 42.997 30.631 43.45 29.499 C 43.871 28.446 41.378 27.183 40.387 26.726 C 39.382 26.264 38.743 25.9 37.386 26.023 C 36.384 26.046 35.352 26.296 34.482 26.839 C 33.648 27.361 31.828 29.028 32.347 29.893 Z"/>
  <path style="fill: rgb(62, 146, 204);" d="M 51.423 26.293 C 51.743 25.848 55.168 27.639 57.115 27.664 C 59.15 27.69 62.205 25.555 62.664 26.687 C 63.091 27.74 60.567 29.003 59.563 29.46 C 58.546 29.922 57.898 30.286 56.524 30.163 C 55.511 30.14 54.465 29.89 53.585 29.347 C 52.741 28.825 50.898 27.158 51.423 26.293 Z" transform="matrix(-1, 0, 0, -1, 114.042664, 56.409138)"/>
  <path style="fill: rgb(247, 136, 13);" d="M 7.183 41.197 C 7.183 41.197 10.204 46.068 13.867 44.082 C 17.067 42.945 17.074 37.561 16.146 35.654 L 13.875 36.883 C 13.875 36.883 14.261 40.432 12.755 41.249 C 11.634 41.858 8.531 39.828 8.531 39.828 L 7.183 41.197 Z"/>
  <path style="fill: rgb(247, 136, 13);" d="M 78.03 35.893 C 78.03 35.893 81.325 31.587 85.319 33.343 C 88.809 34.348 88.817 39.108 87.805 40.794 L 85.328 39.708 C 85.328 39.708 85.749 36.57 84.107 35.847 C 82.884 35.309 79.5 37.104 79.5 37.104 L 78.03 35.893 Z" transform="matrix(-1, 0, 0, -1, 166.417191, 73.716064)"/>
  <path style="fill: rgb(247, 136, 13);" d="M 30.943 87.968 C 28.514 88.33 25.728 87.803 23.866 89.529 C 22.489 90.805 22.989 94.37 22.989 94.37 L 38.508 93.497 L 38.12 86.416 C 38.12 86.416 33.751 87.55 30.943 87.968 Z"/>
  <path style="fill: rgb(247, 136, 13);" d="M 66.212 92.653 C 64.012 92.291 61.49 92.818 59.804 91.092 C 58.557 89.816 59.01 86.251 59.01 86.251 L 73.061 87.124 L 72.71 94.205 C 72.71 94.205 68.754 93.071 66.212 92.653 Z" transform="matrix(-1, 0, 0, -1, 131.990768, 180.456009)"/>
</svg>