<?xml version="1.0" encoding="utf-8"?>
<svg viewBox="19.027 9.72 59.05 36.301" xmlns="http://www.w3.org/2000/svg">
  <rect x="26.495" y="16.389" width="44.284" height="27.625" style="fill: rgb(247, 136, 13);" rx="9.912" ry="9.912"/>
  <rect x="29.236" y="19.658" width="38.169" height="21.51" style="fill: rgb(53, 53, 53);" rx="9.912" ry="9.912"/>
  <path style="fill: rgb(62, 146, 204);" d="M 32.347 29.893 C 32.662 30.338 36.046 28.547 37.969 28.522 C 39.979 28.496 42.997 30.631 43.45 29.499 C 43.871 28.446 41.378 27.183 40.387 26.726 C 39.382 26.264 38.743 25.9 37.386 26.023 C 36.384 26.046 35.352 26.296 34.482 26.839 C 33.648 27.361 31.828 29.028 32.347 29.893 Z"/>
  <path style="fill: rgb(62, 146, 204);" d="M 51.423 26.293 C 51.743 25.848 55.168 27.639 57.115 27.664 C 59.15 27.69 62.205 25.555 62.664 26.687 C 63.091 27.74 60.567 29.003 59.563 29.46 C 58.546 29.922 57.898 30.286 56.524 30.163 C 55.511 30.14 54.465 29.89 53.585 29.347 C 52.741 28.825 50.898 27.158 51.423 26.293 Z" transform="matrix(-1, 0, 0, -1, 114.042664, 56.409138)"/>
</svg>